<mxfile host="app.diagrams.net" modified="2022-01-03T03:20:57.157Z" agent="5.0 (Windows)" etag="65gC9B-Es2_J0vgLkPjA" version="16.1.0" type="github">
  <diagram id="pB8z9s-qbQY0L2rnCU0u" name="第 1 页">
    <mxGraphModel dx="1662" dy="752" grid="1" gridSize="10" guides="1" tooltips="1" connect="1" arrows="1" fold="1" page="1" pageScale="1" pageWidth="827" pageHeight="1169" math="0" shadow="0">
      <root>
        <mxCell id="0" />
        <mxCell id="1" parent="0" />
      </root>
    </mxGraphModel>
  </diagram>
</mxfile>
